<?xml version="1.0" encoding="utf-8"?>
<!-- Generator: Adobe Illustrator 24.0.2, SVG Export Plug-In . SVG Version: 6.00 Build 0)  -->
<svg version="1.1" id="Capa_1" focusable="false" xmlns="http://www.w3.org/2000/svg" xmlns:xlink="http://www.w3.org/1999/xlink"
	 x="0px" y="0px" viewBox="0 0 256 512" style="enable-background:new 0 0 256 512;" xml:space="preserve">
<style type="text/css">
	.st0{fill:#FFFFFF;}
</style>
<g>
	<path class="st0" d="M183.4,439.1L15.9,271.6c-6.4-6.4-6.4-16.7,0-23l11.3-11.3c6.4-6.4,16.7-6.4,23,0l167.5,167.5
		c6.4,6.4,6.4,16.7,0,23l-11.3,11.3C200.1,445.5,189.8,445.5,183.4,439.1z"/>
	<path class="st0" d="M219.4,113.7L49.2,284c-5.4,5.4-14.2,5.4-19.6,0l-4.5-4.5c-11.1-11.1-11.1-29.1,0-40.1l160-160
		c5.4-5.4,14.2-5.4,19.6,0l14.7,14.7C224.9,99.5,224.9,108.3,219.4,113.7z"/>
</g>
</svg>
