<?xml version="1.0" encoding="utf-8"?>
<!-- Generator: Adobe Illustrator 24.0.2, SVG Export Plug-In . SVG Version: 6.00 Build 0)  -->
<svg version="1.1" id="Capa_1" xmlns="http://www.w3.org/2000/svg" xmlns:xlink="http://www.w3.org/1999/xlink" x="0px" y="0px"
	 viewBox="0 0 512 512" style="enable-background:new 0 0 512 512;" xml:space="preserve">
<style type="text/css">
	.st0{fill:#FFFFFF;}
</style>
<g>
	<path class="st0" d="M483.5,138.5c-18-34.9-44.3-65.6-76.1-88.9c-3.3-2.5-8.1-1.7-10.5,1.6c-2.5,3.3-1.7,8.1,1.6,10.5
		c59.6,43.8,96,113.2,98.3,186.8h-57.2v-57.3c0-33.2-23.6-61-55-67.5c-12.7-36-30.5-66.2-51.6-87.7c-4.5-4.6-9.2-8.7-13.9-12.5
		c17.6,4.8,34.6,11.5,50.6,20.1c3.7,2,8.2,0.6,10.2-3.1c2-3.7,0.6-8.2-3.1-10.2C340,10.5,298.2,0,256,0C187.6,0,123.3,26.6,75,75
		S0,187.6,0,256c0,26,3.9,51.6,11.5,76.1c1,3.2,4,5.3,7.2,5.3c0.7,0,1.5-0.1,2.2-0.3c4-1.2,6.2-5.4,4.9-9.4
		c-6.4-20.7-10-42.3-10.7-64.1h57.2v55.7c0,33,23.3,60.6,54.3,67.4c12.6,36.5,30.5,67.2,51.7,89c4.6,4.7,9.4,9,14.3,12.9
		c-68.1-18.6-126.1-66.7-156.2-132.8c-1.7-3.8-6.2-5.5-10-3.7c-3.8,1.7-5.5,6.2-3.7,10C42.9,406,75,443.4,115.6,470.1
		C157.4,497.5,205.9,512,256,512c68.4,0,132.7-26.6,181-75s75-112.6,75-181C512,215.2,502.1,174.5,483.5,138.5L483.5,138.5z
		 M368.1,122.2H263.5V15.4c20.6,2.1,40.8,12.7,58.8,31C340.7,65.1,356.4,91.1,368.1,122.2z M248.5,122.2H143.9
		c11.7-31.1,27.4-57.1,45.8-75.7c18-18.3,38.2-28.9,58.8-31V122.2z M15.2,248.5c3.3-107.7,77.7-197.8,177.7-225
		c-4.8,3.7-9.4,7.9-13.9,12.5c-21.1,21.4-38.9,51.7-51.6,87.7c-31.3,6.5-55,34.3-55,67.5v57.3L15.2,248.5z M87.4,319.2V191.1
		c0-29.7,24.2-53.9,53.9-53.9h229.3c29.7,0,53.9,24.2,53.9,53.9v128.1c0,29.7-24.2,53.9-53.9,53.9H141.4
		C111.6,373.1,87.4,348.9,87.4,319.2z M143.3,388.2h105.2v108.4C206.2,492.3,166.9,451.8,143.3,388.2z M319.2,488.5
		c20.7-16.2,39.1-40.5,53.8-71.6c1.8-3.8,0.2-8.2-3.6-10c-3.8-1.8-8.2-0.2-10,3.6c-24.3,51.4-58.9,82.3-95.8,86V388.2h107.1
		c38,0,69-30.9,69-69v-55.7h57.2C493.5,371.2,419.2,461.3,319.2,488.5L319.2,488.5z"/>
	<path class="st0" d="M253.9,212.4h100.8c-7.9,15.5-19.4,32.3-32.9,48.2c-1.3,1.5-2.5,2.9-3.8,4.4c-6-7.1-11-14.3-14.7-21.1
		c-2-3.6-6.6-5-10.2-2.9c-3.6,2-5,6.6-2.9,10.2c4.4,8,10.5,16.5,17.6,24.9c-12,12.2-24.4,22.6-36,30.1c-3.5,2.3-4.5,6.9-2.2,10.4
		c2.3,3.5,7,4.5,10.4,2.2c12.3-8,25.4-18.9,38-31.7c0.8,0.8,1.5,1.5,2.3,2.3c12.6,12.3,26.4,22.7,38.8,29.3
		c3.6,1.9,8.2,0.6,10.2-3.2c1.9-3.7,0.5-8.2-3.2-10.2c-11.2-5.9-23.7-15.4-35.3-26.7c-0.8-0.8-1.7-1.7-2.5-2.5
		c1.7-1.9,3.4-3.9,5.1-5.8c16.2-19.1,29.7-39.5,38.1-58h16c4.2,0,7.5-3.4,7.5-7.5s-3.4-7.5-7.5-7.5h-60.5v-28.7
		c0-4.2-3.4-7.5-7.5-7.5s-7.5,3.4-7.5,7.5v28.7h-58c-4.2,0-7.5,3.4-7.5,7.5S249.8,212.4,253.9,212.4L253.9,212.4z"/>
	<path class="st0" d="M210,297.8l9.5,25.1c1.5,3.9,5.8,5.8,9.7,4.4c3.9-1.5,5.8-5.8,4.4-9.7l-45.4-120.2c0-0.1-0.1-0.1-0.1-0.2
		c-1.6-3.9-5.3-6.4-9.5-6.4c0,0,0,0,0,0c-4.2,0-7.9,2.5-9.5,6.4c0,0.1,0,0.1-0.1,0.2l-45.8,120.2c-1.5,3.9,0.5,8.2,4.4,9.7
		c3.8,1.5,8.2-0.4,9.7-4.4l9.6-25.1H210z M178.6,214.4l25.8,68.3h-51.8L178.6,214.4z"/>
</g>
</svg>
